<?xml version="1.0" standalone="no"?>
<!DOCTYPE svg PUBLIC "-//W3C//DTD SVG 20010904//EN"
 "http://www.w3.org/TR/2001/REC-SVG-20010904/DTD/svg10.dtd">
<svg version="1.0" xmlns="http://www.w3.org/2000/svg"
 width="1600.000000pt" height="1600.000000pt" viewBox="0 0 1600.000000 1600.000000"
 preserveAspectRatio="xMidYMid meet">

<g transform="translate(0.000000,1600.000000) scale(0.100000,-0.100000)"
fill="#000000" stroke="none">
<path d="M4990 9790 c-9 -6 -10 -10 -3 -10 6 0 15 5 18 10 8 12 4 12 -15 0z"/>
<path d="M5140 9778 c0 -4 4 -8 9 -8 6 0 12 4 15 8 3 5 -1 9 -9 9 -8 0 -15 -4
-15 -9z"/>
<path d="M4934 9739 c-31 -32 -22 -38 16 -12 14 9 22 13 18 8 -4 -4 -4 -13 1
-19 13 -18 21 -46 12 -46 -5 0 -11 10 -14 22 -5 17 -9 19 -21 9 -13 -11 -13
-14 2 -30 9 -10 20 -16 23 -15 3 2 16 -4 28 -12 17 -13 20 -19 10 -30 -9 -11
-8 -14 5 -14 10 0 14 5 11 10 -3 6 -3 10 2 10 4 0 8 11 8 25 0 14 -6 25 -13
25 -7 0 -10 -5 -6 -12 4 -7 3 -8 -4 -4 -13 8 2 46 17 46 12 0 7 30 -6 38 -5 4
-13 14 -16 22 -3 8 -6 -1 -6 -20 -1 -25 -4 -31 -10 -21 -5 8 -7 20 -5 26 10
26 -25 22 -52 -6z"/>
<path d="M5035 9750 c-3 -6 2 -13 12 -17 10 -3 22 -8 26 -11 5 -2 4 5 -2 17
-13 23 -26 27 -36 11z"/>
<path d="M5154 9751 c3 -4 1 -22 -4 -40 -7 -25 -6 -31 6 -31 8 0 13 4 9 9 -3
5 -1 12 4 15 5 4 8 -1 7 -11 -3 -19 -43 -37 -52 -22 -3 6 -10 6 -17 1 -7 -5
-20 -8 -29 -7 -10 2 -18 0 -19 -3 0 -4 -2 -15 -4 -25 -2 -11 -1 -16 2 -13 3 3
12 -2 18 -11 11 -15 15 -15 30 -3 14 12 18 12 26 -1 7 -12 9 -12 10 1 1 8 2
20 4 25 1 6 3 14 3 18 1 5 16 -1 32 -13 17 -12 36 -20 43 -17 7 3 13 -3 13
-13 0 -13 -7 -17 -23 -15 -13 1 -26 -2 -29 -6 -3 -5 3 -9 13 -10 14 0 13 -2
-5 -10 -14 -5 -20 -13 -16 -20 4 -8 3 -9 -5 -5 -9 6 -9 11 0 22 6 8 8 14 4 14
-4 0 -2 7 5 15 10 12 10 19 2 27 -12 12 -13 10 -16 -12 0 -5 -5 -10 -11 -9 -5
0 -12 -8 -16 -18 -7 -17 -8 -17 -8 0 -1 14 -31 27 -31 12 0 -11 34 -44 42 -39
10 6 11 -10 1 -19 -3 -4 -12 1 -20 11 -11 13 -13 13 -10 2 2 -8 -2 -21 -9 -28
-8 -7 -14 -9 -14 -4 0 6 -10 12 -22 15 -22 6 -22 6 -3 27 19 21 19 22 1 35
-14 11 -21 11 -31 2 -9 -8 -9 -14 -2 -19 17 -11 16 -48 -2 -48 -14 0 -14 -2
-1 -10 13 -8 13 -10 -2 -10 -23 0 -31 16 -18 39 9 17 6 23 -20 36 -17 9 -28
20 -25 25 4 6 -3 10 -15 10 -13 0 -19 4 -14 12 4 7 3 8 -5 4 -9 -6 -9 -11 0
-22 10 -12 9 -13 -6 -8 -12 5 -16 4 -12 -3 4 -6 -1 -10 -11 -9 -10 0 -16 -6
-16 -16 1 -10 -2 -16 -6 -13 -5 3 -11 1 -15 -5 -4 -6 -11 -8 -16 -4 -5 3 -6
10 -3 16 4 7 2 8 -5 4 -6 -4 -18 -2 -27 4 -12 11 -14 9 -10 -11 3 -13 5 -27 5
-31 1 -5 6 -8 12 -8 5 0 7 5 4 10 -9 14 1 12 35 -5 17 -9 30 -20 30 -26 0 -5
6 -4 14 3 8 7 12 16 9 21 -7 12 8 8 23 -7 9 -9 10 -17 4 -21 -5 -3 -10 -3 -10
2 0 4 -6 -3 -13 -17 -9 -17 -10 -27 -3 -32 7 -5 7 -8 1 -9 -5 0 -18 -2 -28 -4
-11 -2 -22 5 -27 18 -5 12 -9 18 -10 12 0 -5 -5 -3 -10 5 -8 13 -10 12 -10 -2
0 -10 5 -18 12 -18 6 0 9 -2 7 -5 -8 -7 -49 7 -49 17 0 5 5 6 11 2 8 -4 9 1 4
17 -4 16 -3 20 3 11 5 -8 13 -13 18 -13 20 2 44 -11 38 -20 -3 -6 3 -5 15 3
l21 13 -21 7 c-11 4 -18 12 -15 17 3 5 -2 12 -11 16 -10 3 -19 2 -21 -3 -2 -6
-12 -8 -22 -5 -18 5 -25 21 -21 46 0 4 -1 7 -4 7 -9 0 -85 -75 -85 -84 0 -5 8
1 19 12 21 25 41 29 41 7 0 -10 6 -12 18 -8 15 6 15 5 3 -10 -7 -9 -10 -24 -7
-33 5 -14 4 -15 -9 -4 -8 7 -13 15 -11 19 3 4 0 13 -5 21 -9 13 -10 13 -6 0 6
-21 -12 -52 -28 -47 -8 4 -11 -1 -8 -13 6 -22 -39 -58 -47 -38 -3 7 -11 14
-18 16 -8 1 -7 -7 5 -25 10 -15 13 -24 6 -20 -7 4 -13 0 -16 -10 -4 -16 -5
-16 -6 1 -1 15 -4 16 -16 6 -8 -7 -12 -16 -9 -21 3 -5 -1 -6 -9 -3 -16 6 -42
-21 -33 -35 3 -5 -1 -11 -9 -15 -8 -3 -15 -10 -15 -16 0 -6 7 -4 16 5 14 13
19 14 25 3 14 -21 11 -23 -28 -23 -35 0 -38 -2 -37 -26 1 -20 -3 -25 -16 -22
-12 3 -22 -6 -33 -29 -9 -19 -25 -42 -37 -53 -11 -10 -20 -24 -20 -30 0 -7 -7
-19 -16 -26 -9 -7 -20 -22 -25 -34 -5 -11 -18 -33 -29 -50 -11 -16 -24 -39
-30 -50 -6 -11 -24 -42 -40 -70 -17 -27 -34 -57 -37 -65 -4 -8 -9 -17 -12 -20
-11 -9 -160 -318 -181 -375 -9 -24 -48 -113 -61 -137 -5 -10 -9 -27 -9 -37 0
-11 -4 -23 -10 -26 -5 -3 -10 -13 -10 -22 0 -9 -8 -25 -17 -35 -15 -16 -15
-21 -3 -28 12 -7 12 -10 -3 -16 -9 -3 -17 -17 -17 -30 0 -13 -4 -32 -10 -42
-20 -37 -60 -164 -54 -174 4 -6 1 -14 -6 -18 -6 -4 -12 -25 -12 -46 0 -22 -7
-54 -15 -72 -8 -18 -11 -37 -8 -43 4 -5 2 -15 -3 -22 -13 -16 -42 -186 -53
-322 -18 -193 -22 -580 -10 -705 23 -217 55 -436 76 -510 1 -3 4 -21 9 -40 15
-71 94 -328 106 -345 4 -5 16 -37 27 -70 55 -161 283 -610 346 -679 9 -11 17
-25 17 -31 0 -7 9 -20 20 -30 11 -10 20 -24 20 -32 0 -7 4 -13 9 -13 5 0 12
-8 16 -19 3 -10 16 -30 28 -44 12 -14 38 -47 57 -74 19 -26 38 -50 41 -53 6
-5 62 -71 117 -138 37 -46 354 -362 362 -362 4 0 21 -15 38 -32 30 -33 85 -81
131 -115 13 -10 32 -26 42 -35 11 -10 22 -18 25 -18 5 0 73 -52 108 -83 11 -9
25 -17 32 -17 7 0 14 -4 16 -8 3 -8 155 -112 163 -112 3 0 35 -18 71 -40 36
-22 69 -40 73 -40 4 0 28 -13 54 -30 26 -16 54 -30 62 -30 8 0 15 -4 15 -10 0
-5 6 -10 14 -10 8 0 31 -9 53 -20 87 -44 269 -116 443 -174 213 -72 252 -82
470 -130 41 -9 100 -19 130 -23 30 -3 65 -9 77 -14 13 -5 30 -6 38 -3 8 4 28
1 43 -4 46 -19 168 -27 397 -27 221 0 335 7 432 26 29 6 56 8 61 5 4 -2 26 -1
48 4 21 5 55 11 74 14 19 4 64 13 100 21 36 9 106 24 155 34 50 11 124 30 165
44 41 13 102 32 135 42 33 9 79 26 102 36 23 10 45 19 48 19 4 0 23 7 43 16
214 97 363 170 472 232 114 65 399 253 436 287 14 13 35 27 45 30 11 4 19 11
19 16 0 5 4 9 10 9 5 0 20 10 32 23 13 12 38 33 56 46 18 13 47 38 65 55 18
17 58 52 88 78 79 68 298 280 349 337 31 33 47 85 42 130 -4 41 -16 55 -206
249 -110 113 -210 213 -220 221 -10 9 -43 37 -71 62 -105 93 -156 91 -310 -12
-60 -40 -111 -77 -113 -81 -2 -5 -10 -8 -18 -8 -8 0 -14 -4 -14 -9 0 -10 -243
-169 -331 -216 -132 -70 -358 -178 -399 -190 -14 -4 -29 -11 -35 -15 -12 -9
-161 -58 -195 -65 -13 -2 -44 -11 -70 -20 -26 -9 -57 -17 -69 -20 -12 -2 -30
-6 -39 -9 -9 -3 -35 -8 -57 -11 -22 -3 -83 -13 -135 -23 -119 -21 -554 -23
-700 -4 -167 23 -421 94 -539 152 -189 92 -245 121 -323 171 -184 118 -371
286 -527 474 -121 146 -271 417 -271 491 0 27 5 36 25 44 14 5 246 9 547 10
288 0 552 3 588 6 80 8 146 41 180 92 l25 37 3 315 c4 383 -2 421 -75 469 -29
20 -62 32 -96 35 -29 3 -261 8 -517 11 -449 5 -466 6 -482 25 -13 17 -14 26
-5 53 13 37 116 198 135 210 7 5 10 12 7 16 -2 5 11 26 30 47 19 21 33 40 30
42 -2 2 7 14 21 27 13 12 24 27 24 33 0 5 7 12 15 16 8 3 15 9 15 14 0 5 22
33 50 63 27 30 50 60 50 67 0 6 7 12 15 12 9 0 18 7 22 16 3 8 35 46 72 83 36
38 109 113 162 167 222 227 386 378 564 519 61 48 114 93 118 101 4 8 13 14
20 14 7 0 41 23 77 50 36 27 82 62 103 77 21 15 55 42 75 58 20 17 44 35 53
40 59 35 198 132 221 153 16 14 31 21 39 17 9 -6 11 -2 7 12 -4 17 -1 21 20
21 15 0 28 5 30 11 2 6 11 11 21 11 9 0 23 9 30 19 8 11 20 17 27 14 8 -3 17
2 20 11 3 9 10 13 15 11 7 -5 63 18 78 31 2 2 -2 11 -10 21 -13 15 -12 16 6 8
11 -5 32 -8 48 -8 15 0 27 -3 27 -8 0 -4 10 -11 23 -14 28 -9 25 -6 392 -367
356 -351 518 -504 557 -524 24 -12 193 -14 1135 -14 1189 0 1157 -1 1211 50
57 56 57 55 57 442 l0 356 -31 39 c-17 21 -46 47 -65 58 -33 19 -54 20 -749
22 -393 1 -808 4 -922 7 -203 4 -209 4 -253 30 -61 36 -351 329 -375 379 -11
22 -17 44 -14 48 3 5 -6 4 -20 -2 -14 -7 -23 -15 -21 -19 6 -9 -41 -24 -86
-28 -9 -1 -29 -13 -45 -27 -34 -29 -52 -31 -70 -7 -13 16 -14 16 -8 0 5 -14 1
-18 -19 -18 -15 0 -26 -7 -29 -18 -3 -10 -15 -18 -29 -19 -13 0 -18 1 -11 4 6
3 9 10 5 16 -4 7 2 5 12 -3 12 -10 16 -10 11 -2 -4 7 -2 20 5 28 9 11 3 10
-23 -4 -20 -11 -40 -18 -44 -14 -5 4 -2 -1 5 -11 11 -14 12 -20 2 -30 -10 -9
-11 -8 -5 7 6 16 5 17 -14 7 -12 -7 -22 -14 -22 -17 0 -3 6 -2 13 2 6 4 5 1
-3 -7 -8 -8 -20 -21 -28 -29 -7 -8 -11 -9 -7 -2 7 14 -21 17 -30 2 -3 -5 0
-10 7 -10 10 0 10 -2 -1 -9 -9 -6 -19 -4 -29 5 -8 8 -17 12 -20 9 -4 -3 0 -10
8 -15 12 -8 9 -10 -11 -10 -21 0 -26 5 -25 23 0 12 7 23 14 23 6 1 17 2 22 3
6 0 10 6 10 12 0 5 -4 8 -9 5 -5 -3 -11 1 -14 8 -3 8 -16 20 -28 26 -12 7 -19
8 -15 2 3 -6 0 -13 -6 -15 -9 -4 -8 -6 2 -6 9 -1 16 -10 16 -20 0 -16 -4 -17
-18 -10 -10 5 -18 17 -18 26 0 13 -3 13 -15 3 -11 -9 -15 -9 -15 -1 0 7 -5 9
-10 6 -6 -4 -8 -16 -5 -26 6 -18 5 -19 -14 -7 -12 7 -24 21 -27 31 -3 10 -8
16 -11 14 -2 -3 0 -14 6 -25 9 -17 8 -21 -7 -25 -16 -4 -16 -5 1 -6 9 0 17 -5
17 -11 0 -5 7 -6 17 -3 10 4 14 2 10 -4 -5 -7 0 -9 12 -6 13 3 17 11 14 24 -4
13 0 19 11 19 9 0 16 -5 16 -11 0 -5 -6 -7 -12 -3 -8 4 -9 3 -5 -2 5 -5 16 -9
25 -9 10 0 19 -12 23 -31 5 -28 4 -31 -14 -26 -16 4 -19 1 -14 -11 3 -9 0 -18
-9 -21 -9 -3 -12 -1 -9 4 3 6 1 10 -4 10 -6 0 -11 -6 -11 -14 0 -8 -10 -16
-22 -18 -13 -2 -22 -9 -20 -17 3 -12 0 -12 -12 -1 -18 14 -22 25 -6 15 6 -3
10 -1 10 4 0 6 -4 11 -9 11 -6 0 -8 9 -6 20 2 11 0 20 -5 20 -5 0 -7 6 -4 14
3 8 -3 27 -13 42 -10 16 -17 29 -15 31 6 8 1 33 -8 33 -14 0 -12 -27 3 -34 6
-3 2 -3 -10 0 -13 3 -23 1 -23 -5 0 -6 -6 -8 -13 -5 -8 3 -19 -5 -26 -18 -6
-13 -9 -15 -7 -5 7 23 -6 22 -22 -3 -7 -12 -18 -18 -24 -14 -7 5 -8 3 -3 -6 5
-9 0 -11 -21 -8 -16 3 -23 3 -16 1 6 -3 12 -9 12 -14 0 -5 7 -9 16 -9 9 0 12
-5 8 -11 -4 -7 -1 -10 7 -7 8 3 13 12 13 21 -1 9 2 14 7 11 5 -3 6 2 3 10 -9
23 13 20 25 -3 9 -15 7 -20 -11 -24 -12 -4 -19 -9 -15 -13 4 -4 2 -13 -4 -20
-15 -18 -1 -36 22 -29 11 4 19 2 19 -5 0 -6 10 -8 28 -4 35 9 37 11 24 27 -7
8 -9 17 -5 21 4 4 0 4 -10 0 -17 -6 -17 -7 0 -20 16 -13 15 -14 -12 -7 -16 4
-38 6 -48 5 -9 0 -15 4 -11 9 3 5 13 8 22 7 10 -2 17 4 17 12 0 8 5 18 10 22
6 5 5 8 -2 8 -7 0 -13 4 -13 10 0 5 8 7 18 3 14 -5 13 -3 -3 10 l-20 16 20 7
c11 4 25 9 30 11 6 3 2 -2 -8 -10 -18 -15 -18 -16 2 -26 31 -17 46 -14 30 7
-12 16 -12 16 5 0 23 -21 13 -42 -14 -28 -13 7 -21 7 -25 0 -4 -6 -3 -10 2 -9
22 4 34 -2 27 -13 -6 -10 -4 -10 8 0 13 10 17 10 20 0 3 -7 -2 -19 -11 -26
-12 -10 -13 -12 -1 -6 13 7 13 6 0 -12 -22 -28 -31 -33 -48 -26 -11 4 -13 2
-7 -8 6 -10 4 -12 -10 -6 -11 4 -22 2 -27 -6 -6 -10 -8 -8 -8 5 0 9 -6 18 -12
18 -7 1 -23 3 -35 4 -12 1 -20 -2 -17 -7 3 -4 9 -6 14 -3 18 11 3 -22 -23 -49
l-27 -29 2 25 c2 18 7 24 17 20 11 -4 13 1 9 23 -4 21 -1 29 13 32 23 6 25 23
4 23 -8 0 -15 4 -15 9 0 4 -9 8 -20 7 -11 0 -19 -5 -18 -11 2 -5 8 -9 14 -9 6
1 9 -7 7 -17 -6 -21 -33 -14 -33 8 0 12 -3 13 -15 3 -8 -6 -19 -9 -25 -5 -6 3
-10 -3 -10 -14 0 -24 10 -27 28 -9 9 9 12 9 12 -1 0 -7 5 -9 13 -5 9 6 9 4 -1
-8 -9 -11 -10 -18 -2 -23 5 -3 10 -11 10 -17 0 -6 -6 -5 -16 3 -13 11 -15 10
-12 -6 1 -10 -2 -20 -7 -22 -6 -2 -11 8 -11 21 0 14 4 22 8 20 4 -3 8 0 8 5 0
6 -7 11 -15 11 -13 0 -19 -10 -17 -30 0 -3 -8 -7 -19 -7 -17 -2 -23 7 -16 23
1 3 -6 10 -17 16 -14 8 -21 7 -28 -3 -8 -11 -9 -10 -4 4 3 9 1 17 -4 17 -6 0
-10 -4 -10 -9 0 -5 -11 -12 -25 -15 -14 -4 -23 -11 -20 -16 3 -6 1 -10 -4 -10
-14 0 -13 10 2 35 14 23 72 32 93 14 10 -8 13 -6 11 10 -1 13 -7 19 -14 17 -6
-3 -14 0 -16 7 -3 9 -8 9 -18 0 -15 -15 -43 -17 -34 -3 4 6 -1 7 -11 3 -14 -5
-15 -3 -5 16 9 15 18 20 31 16 15 -5 18 -1 17 15 -1 14 -8 20 -25 20 -15 0
-21 -4 -16 -12 4 -7 3 -8 -4 -4 -7 4 -12 14 -12 22 0 9 -6 14 -12 11 -7 -2
-12 -10 -10 -16 1 -6 -5 -11 -13 -11 -8 0 -15 -5 -15 -11 0 -12 -29 -38 -43
-39 -5 0 -5 5 -1 12 5 8 2 9 -10 5 -10 -4 -23 -7 -29 -8 -7 0 -3 -4 8 -9 20
-8 19 -9 -1 -9 -16 -1 -23 7 -27 27 -4 20 -12 27 -31 28 -14 1 -26 0 -26 -2 0
-16 38 -70 47 -67 6 2 14 -1 18 -6 3 -6 0 -8 -8 -5 -10 4 -14 -3 -14 -22 0
-25 1 -26 12 -10 12 16 14 16 28 -5 9 -13 20 -18 28 -14 7 5 10 4 5 -3 -6 -10
27 -36 36 -27 2 2 4 -5 4 -16 0 -10 -4 -18 -9 -16 -5 1 -8 6 -7 11 3 16 -24
25 -39 13 -12 -10 -14 -9 -8 6 3 9 2 17 -3 17 -6 0 -10 7 -10 15 0 8 -4 15
-10 15 -5 0 -10 -10 -10 -22 0 -21 -1 -21 -14 -3 -13 18 -14 18 -23 0 -7 -12
-13 -14 -17 -6 -10 15 -26 14 -26 -2 0 -16 42 -20 52 -4 6 9 8 9 8 0 0 -17
-19 -26 -54 -25 l-31 1 28 -15 c15 -8 25 -20 21 -25 -4 -6 -14 -2 -26 11 -28
30 -35 17 -8 -17 l22 -28 -25 -10 c-13 -5 -22 -15 -20 -21 5 -14 -35 -26 -43
-13 -3 5 5 9 18 9 18 0 20 2 8 10 -13 9 -13 10 0 10 12 1 12 3 -2 14 -24 17
-23 26 3 26 15 0 19 5 14 19 -3 10 1 24 10 31 8 7 15 19 15 27 0 8 6 21 14 29
16 16 30 19 21 5 -3 -5 -2 -12 3 -15 4 -2 13 4 20 15 9 14 9 19 0 19 -6 0 -8
3 -5 7 4 4 -7 13 -24 20 -18 8 -28 17 -23 24 4 7 2 10 -5 8 -7 -3 -12 -8 -12
-12 1 -4 1 -14 1 -23 0 -11 6 -14 20 -9 22 7 28 -10 6 -18 -15 -6 -36 10 -36
28 0 6 -9 11 -20 12 -17 2 -50 24 -50 35 0 2 13 4 29 3 21 0 27 -3 20 -12 -17
-20 15 -10 39 13 21 19 22 64 1 64 -12 0 -11 -17 1 -25 21 -13 8 -21 -30 -19
-22 1 -40 -2 -40 -7 0 -4 -7 -6 -15 -3 -8 3 -20 2 -27 -2 -19 -12 -39 -14 -32
-3 3 5 2 9 -3 10 -4 0 -16 2 -25 4 -11 2 -18 -3 -18 -11 0 -12 -2 -12 -14 -2
-10 9 -11 15 -2 21 6 4 0 5 -14 3 -14 -3 -33 -5 -42 -5 -10 -1 -18 -6 -18 -12
0 -5 4 -8 8 -5 5 3 9 -1 9 -10 0 -10 -7 -12 -20 -8 -16 5 -19 3 -14 -10 4 -11
3 -15 -4 -11 -6 4 -8 13 -5 20 7 20 -5 26 -23 12 -14 -11 -14 -10 -2 6 13 16
12 18 -11 13 -14 -2 -30 -1 -37 4 -9 5 -4 9 13 12 17 4 35 -2 51 -14 14 -11
25 -16 26 -11 5 57 5 92 -1 88 -4 -2 -6 7 -4 20 1 14 -2 25 -7 25 -5 0 -9 5
-9 11 0 6 6 9 13 6 6 -2 11 -11 11 -20 -1 -9 2 -15 6 -12 5 3 10 0 12 -7 3 -9
6 -9 12 0 4 7 2 12 -4 12 -6 0 -8 5 -5 10 3 6 2 10 -4 10 -6 0 -8 7 -5 15 4 8
1 22 -6 30 -8 10 -9 15 -2 15 6 0 14 -5 17 -10 4 -6 10 -8 15 -5 5 3 14 -3 20
-12 10 -16 11 -16 6 -1 -3 9 0 19 7 22 7 2 2 5 -10 5 -12 1 -24 7 -26 14 -4 9
-6 9 -6 -1 -1 -7 -5 -11 -10 -8 -12 8 -63 -19 -53 -28 4 -4 2 -6 -3 -5 -16 5
-56 -21 -50 -32 4 -5 15 -9 27 -9 14 0 18 5 14 16 -3 9 -2 12 5 9 6 -4 8 -13
5 -21 -3 -8 -1 -14 4 -14 6 0 10 -6 10 -14 0 -9 -10 -13 -25 -12 -16 0 -23 6
-20 14 2 6 0 12 -5 12 -6 0 -10 -7 -10 -15 0 -13 -4 -14 -20 -5 -11 6 -20 8
-20 5 0 -3 9 -14 20 -25 26 -26 26 -40 0 -33 -15 4 -18 9 -10 18 8 9 6 14 -6
19 -28 11 -42 7 -47 -14 -3 -11 -10 -20 -16 -20 -5 0 -3 13 7 30 9 17 22 28
28 26 8 -3 10 3 6 16 -4 16 -2 19 9 13 12 -8 12 -6 0 8 -11 14 -11 17 0 18 8
1 21 3 29 4 8 1 21 3 28 4 6 0 12 6 12 12 0 8 -4 8 -14 0 -10 -9 -16 -9 -21
-1 -5 8 -11 8 -21 -1 -12 -10 -13 -9 -7 7 6 17 5 18 -13 4 -15 -11 -16 -11 -6
0 18 21 15 32 -7 18 -10 -6 -18 -22 -18 -34 0 -13 3 -22 7 -19 3 2 7 -2 7 -10
0 -8 -2 -13 -5 -10 -6 6 -62 -27 -62 -37 0 -4 7 -8 16 -8 8 0 13 4 9 9 -3 5
-1 12 5 16 6 4 10 -5 10 -20 0 -19 -4 -26 -14 -22 -10 4 -12 0 -9 -14 3 -10
14 -19 24 -19 21 0 25 -15 7 -26 -7 -4 -8 -3 -4 4 5 8 -4 12 -26 13 -18 0 -27
3 -20 6 6 2 12 11 12 19 0 9 -4 12 -10 9 -5 -3 -7 0 -4 9 4 11 0 13 -15 9 -13
-3 -21 -1 -21 6 0 7 4 10 9 6 5 -3 13 -1 16 5 4 6 3 9 -2 8 -4 -2 -8 1 -8 7 0
5 8 8 19 7 12 -2 17 1 14 10 -3 7 -18 13 -34 13 -44 1 -55 -5 -48 -27 5 -17 4
-18 -15 -6 -15 9 -17 15 -8 20 7 5 -5 6 -26 4 -32 -4 -36 -2 -27 9 6 8 19 11
28 8 14 -4 14 -3 3 5 -12 9 -10 13 12 23 29 13 34 25 15 32 -10 3 -10 7 -1 17
8 9 13 7 18 -9 4 -13 11 -18 18 -14 7 4 6 -1 -2 -10 -12 -16 -12 -17 5 -10 17
6 17 5 5 -10 -12 -15 -11 -17 12 -17 17 0 28 7 32 21 5 15 10 18 18 10 14 -14
30 -14 22 0 -4 6 2 13 14 16 12 3 21 13 21 22 0 14 -2 14 -10 1 -5 -8 -10 -10
-10 -5 0 6 -5 2 -11 -9 -16 -26 -29 -2 -23 39 4 22 3 26 -4 15 -6 -8 -8 -18
-6 -22 3 -4 1 -8 -5 -8 -6 0 -8 -8 -4 -17 3 -10 2 -15 -2 -10 -5 4 -8 27 -8
50 1 35 0 38 -7 17 -4 -14 -8 -21 -9 -17 -1 5 -8 1 -17 -8 -9 -9 -24 -13 -32
-10 -8 3 -19 0 -23 -7 -7 -10 -11 -10 -20 -1 -15 15 -9 24 19 26 11 0 18 5 16
9 -3 5 -10 6 -15 3 -5 -3 -6 1 -3 9 7 18 -4 20 -26 6 -13 -8 -13 -10 -1 -10
25 0 -3 -21 -32 -24 -16 -2 -24 1 -21 8 3 7 -5 12 -16 13 -22 2 -53 -34 -43
-51 3 -6 3 -8 -2 -4 -4 4 -14 3 -21 -3 -11 -9 -15 -7 -20 6 -5 12 -9 13 -14 5
-5 -9 -9 -9 -14 -1 -4 6 -2 11 4 11 6 0 8 6 4 13 -6 10 -4 10 7 0 15 -15 49
-17 49 -4 0 28 -70 36 -88 10 -11 -15 -17 -17 -33 -8 -17 8 -23 7 -35 -8 -14
-17 -14 -17 -8 1 5 14 3 17 -12 14 -14 -2 -19 -12 -19 -35 1 -26 -2 -30 -13
-21 -10 9 -11 13 0 20 11 6 10 10 -1 17 -11 7 -10 10 3 18 15 8 15 12 2 37
-10 19 -16 24 -22 15 -4 -7 -3 -14 4 -17 6 -2 8 -11 5 -19 -6 -15 -7 -14 -13
2 -7 20 -48 28 -67 13 -17 -13 -33 -1 -27 20 5 15 5 15 -6 -1 -6 -9 -9 -21 -6
-26 3 -5 -1 -14 -9 -21 -13 -11 -14 -10 -10 2 8 21 -31 30 -49 12 -17 -17 -30
-19 -20 -2 4 7 3 8 -4 4 -6 -4 -25 0 -42 9 -32 17 -66 10 -36 -7 9 -5 21 -6
26 -3 6 4 9 1 8 -7 -2 -7 2 -12 9 -11 8 2 10 -4 6 -14 -4 -11 -3 -14 5 -9 12
7 15 -2 13 -39 -1 -17 0 -17 9 3 10 23 30 22 30 -1 0 -7 -4 -6 -11 3 -8 12 -9
11 -5 -5 5 -16 -1 -22 -32 -32 -28 -9 -33 -9 -22 0 21 16 19 50 -2 59 -11 4
-15 13 -12 23 3 8 1 15 -5 15 -6 0 -11 -7 -11 -16 0 -8 -4 -13 -10 -9 -5 3 -6
13 -3 22 4 11 2 14 -8 11 -8 -3 -14 -15 -14 -28 0 -13 -7 -26 -14 -28 -9 -3
-11 0 -6 8 5 9 2 10 -13 6 -17 -6 -20 -3 -17 13 4 21 -21 49 -32 37 -4 -4 -2
-11 6 -15 10 -6 9 -10 -4 -15 -10 -3 -24 -1 -31 5 -8 6 -14 8 -14 4 0 -4 -7
-2 -15 5 -8 7 -12 17 -8 24 3 6 -3 2 -15 -8 -12 -11 -25 -16 -29 -13 -3 4 -2
7 3 7 6 0 10 24 10 53 0 28 -1 44 -4 34 -2 -12 -9 -16 -19 -13 -8 3 -17 6 -20
6 -3 0 1 8 8 18 12 15 12 16 -2 5 -9 -7 -18 -10 -22 -7 -3 3 -4 -2 -3 -13 2
-10 -6 -23 -18 -30 -15 -9 -17 -13 -6 -13 8 -1 4 -6 -10 -12 -21 -9 -22 -12
-7 -15 9 -3 17 -8 17 -13 0 -5 3 -17 7 -27 6 -16 5 -16 -10 -4 -10 8 -21 11
-24 7 -13 -12 21 -27 50 -21 15 2 26 1 23 -3 -2 -4 2 -18 11 -32 8 -14 12 -17
9 -7 -4 12 0 17 14 17 21 0 35 16 21 24 -5 4 -12 2 -16 -4 -8 -13 -28 -13 -23
1 2 6 7 10 12 9 4 -1 14 7 22 17 8 11 13 13 14 6 0 -7 10 -13 23 -14 19 0 19
-1 4 -7 -16 -7 -16 -9 -3 -27 9 -11 16 -14 16 -7 0 6 5 12 11 12 5 0 7 -4 4
-10 -3 -6 1 -7 10 -4 13 5 13 9 3 22 -8 10 -9 13 -1 9 6 -4 13 -4 16 0 2 5 2
3 1 -4 -2 -7 6 -15 17 -18 10 -4 19 -14 19 -23 0 -13 -2 -13 -14 4 -13 17 -15
17 -21 3 -7 -19 -59 -17 -82 3 -12 9 -13 7 -9 -14 4 -22 1 -25 -17 -20 -12 3
-27 9 -34 14 -7 6 -15 3 -22 -9 -9 -16 -10 -16 -11 -1 0 9 5 20 10 23 21 13 9
27 -19 23 -17 -2 -28 -1 -26 3 3 4 -3 10 -12 13 -23 9 -36 -16 -17 -34 12 -12
18 -12 34 -2 28 17 46 16 30 -3 -7 -8 -16 -12 -21 -9 -5 3 -9 0 -9 -6 0 -19
-33 -47 -38 -32 -2 7 -9 9 -14 6 -6 -4 -8 -2 -4 4 3 6 2 13 -4 17 -5 3 -10 1
-10 -4 0 -6 -3 -10 -7 -10 -5 1 -10 0 -13 -1 -21 -8 -37 -6 -37 6 0 10 4 11
14 3 9 -8 13 -8 13 0 0 6 6 11 14 11 8 0 13 8 11 18 -2 9 -4 19 -4 21 -1 2 -9
-3 -18 -11 -10 -9 -35 -21 -55 -26 -30 -8 -36 -8 -31 4 5 12 -7 19 -29 15 -12
-2 -10 17 2 24 6 3 10 1 10 -4 0 -6 6 -11 14 -11 8 0 17 -6 19 -12 3 -7 6 -3
6 10 1 14 -5 22 -15 22 -9 0 -18 9 -21 20 -4 13 -9 17 -17 12 -24 -19 -46 -22
-46 -6 0 11 6 15 20 11 24 -6 34 8 35 51 1 18 6 37 13 44 8 8 9 5 5 -11 -4
-16 -1 -21 12 -21 17 0 17 -1 2 -18 -19 -21 -23 -47 -5 -36 8 5 9 2 5 -9 -7
-19 26 -42 46 -31 6 4 3 -3 -8 -15 -19 -22 -19 -23 -1 -20 28 6 45 37 26 49
-8 5 -10 10 -5 10 6 0 18 -9 28 -20 18 -21 37 -26 37 -10 0 6 -8 10 -17 11
-10 0 -13 3 -7 5 8 3 4 13 -10 29 -16 19 -24 21 -35 12 -12 -10 -12 -9 -1 13
12 22 12 24 -2 12 -13 -11 -18 -11 -24 0 -4 7 -4 10 0 6 4 -3 16 1 27 10 14
12 15 18 6 24 -9 5 -9 10 2 20 10 10 12 10 7 1 -4 -7 -2 -13 3 -13 6 0 11 6
12 13 0 16 21 -31 26 -60 2 -13 -1 -23 -7 -23 -5 0 -10 -5 -10 -11 0 -6 9 -9
19 -6 14 3 18 1 14 -9 -3 -8 0 -14 5 -14 19 0 22 18 6 34 -14 15 -14 16 0 16
11 0 16 9 16 31 0 16 4 28 9 24 6 -3 8 5 6 17 -4 23 -4 23 11 3 16 -20 16 -19
9 4 -5 16 -4 21 4 17 6 -4 11 -2 11 3 0 6 6 11 14 11 8 0 18 5 22 12 5 7 2 9
-9 5 -9 -3 -18 1 -21 9 -5 12 -14 14 -38 8 -18 -4 -39 -7 -45 -7 -18 0 -16
-14 2 -21 8 -3 15 -1 15 5 0 6 4 8 9 4 5 -3 12 -1 16 5 9 14 25 13 25 -3 0 -7
-10 -17 -22 -22 -18 -8 -31 -6 -55 8 -18 11 -33 23 -33 28 0 5 -15 3 -34 -5
-30 -12 -35 -12 -40 0 -3 8 -15 14 -26 14 -12 0 -18 -5 -15 -10 4 -6 11 -8 16
-5 5 4 9 -5 9 -19 0 -29 -31 -51 -48 -34 -6 6 -8 17 -5 24 7 19 -27 6 -44 -15
-11 -14 -12 -14 -13 1 0 11 10 20 25 24 29 7 31 13 9 40 -8 10 -12 13 -8 5 5
-10 3 -13 -8 -8 -11 4 -14 1 -11 -12 5 -21 -23 -36 -33 -19 -5 7 -2 8 7 3 11
-6 12 -5 1 6 -9 10 -17 11 -30 2 -13 -8 -24 -8 -38 0 -17 10 -18 9 -5 -7 8
-10 22 -15 32 -13 12 3 15 0 12 -14 -7 -24 -11 -24 -34 4 -16 19 -20 20 -28 7
-8 -11 -5 -17 12 -22 16 -4 17 -6 5 -7 -10 -1 -18 -5 -18 -11 0 -5 -5 -10 -11
-10 -5 0 -7 5 -3 12 4 6 3 8 -4 5 -16 -11 -41 3 -35 19 4 11 9 12 19 3 13 -10
18 -6 15 14 0 4 4 7 10 7 5 0 8 4 4 10 -3 5 -13 6 -21 3 -17 -6 -36 15 -27 30
3 5 9 3 14 -4 4 -7 11 -10 15 -7 3 4 0 14 -9 22 -13 14 -16 14 -21 0 -4 -9
-11 -12 -18 -7 -7 4 -22 6 -33 5 -17 -2 -18 -1 -5 8 13 10 13 11 0 7 -9 -2
-14 -13 -12 -27 3 -16 0 -20 -10 -15 -7 3 -4 -1 6 -9 15 -12 16 -16 5 -17 -8
-1 -18 -2 -24 -4 -5 -1 -20 -3 -32 -3 -13 -1 -23 -7 -23 -13 0 -5 4 -8 8 -5 5
3 9 -1 9 -9 0 -18 -17 -20 -17 -2 -1 8 -5 6 -13 -4 -9 -12 -18 -14 -34 -8 -13
5 -25 4 -28 -2 -4 -5 -10 -7 -15 -4 -5 3 -11 1 -15 -5 -3 -5 3 -10 15 -10 13
0 19 -4 14 -12 -4 -7 -3 -8 5 -4 6 4 9 11 7 15 -3 3 3 7 12 7 11 0 17 -8 17
-23 0 -26 -6 -28 -23 -11 -7 7 -12 8 -12 4 0 -5 -7 -3 -15 4 -10 9 -15 9 -15
1 0 -21 -2 -26 -12 -38 -6 -7 -16 -13 -22 -13 -6 0 -5 4 3 9 7 5 14 22 15 38
1 16 9 41 19 56 23 35 22 56 -3 54 -14 -1 -19 -7 -16 -23 3 -15 -2 -24 -15
-27 -10 -3 -19 -11 -19 -17 0 -9 5 -9 18 1 15 13 16 12 3 -3 -7 -10 -10 -18
-5 -18 5 0 1 -5 -9 -11 -10 -6 -22 -20 -27 -32 l-9 -22 0 21 c-1 12 6 24 14
28 8 3 15 10 15 16 0 6 -5 8 -11 4 -8 -5 -8 -1 0 14 7 14 8 23 1 27 -11 7 -4
25 10 25 5 0 6 -8 3 -17 -6 -16 -5 -16 10 -4 16 13 16 14 0 26 -12 9 -20 10
-24 3 -4 -6 -12 -7 -19 -3 -7 5 -11 4 -8 -1 3 -5 -3 -17 -14 -26 -22 -22 -23
-15 -2 17 9 13 12 29 8 36 -5 9 0 10 20 5 17 -4 26 -2 26 6 0 9 3 9 12 0 15
-15 28 -15 28 0 0 6 -3 8 -7 5 -3 -4 -13 -2 -20 5 -11 9 -16 9 -22 0 -4 -7
-12 -8 -21 -2 -9 5 -19 5 -27 -2 -7 -6 -13 -7 -13 -3 0 4 -6 2 -14 -4 -10 -9
-15 -8 -20 4 -3 10 0 15 11 15 9 0 14 3 10 6 -3 4 -14 4 -23 0 -15 -6 -15 -8
1 -34 10 -15 14 -24 10 -20 -5 4 -15 2 -23 -4 -11 -10 -14 -8 -12 12 4 46 2
52 -19 40 -28 -14 -38 -13 -61 10 -11 11 -20 15 -20 9 0 -5 -6 -7 -12 -3 -8 5
-7 0 2 -11 10 -13 11 -16 2 -11 -8 5 -21 2 -30 -6 -19 -15 -35 -16 -71 -4 -19
7 -22 13 -17 38 3 18 2 27 -4 23 -6 -4 -13 1 -16 9 -3 9 -10 16 -16 16 -5 0
-7 -4 -4 -9z m668 -103 c-9 -9 -12 -7 -12 12 0 19 3 21 12 12 9 -9 9 -15 0
-24z m-520 0 c-7 -7 -12 -8 -12 -2 0 14 12 26 19 19 2 -3 -1 -11 -7 -17z m38
12 c0 -5 -5 -10 -11 -10 -5 0 -7 5 -4 10 3 6 8 10 11 10 2 0 4 -4 4 -10z
m-236 -12 c-3 -4 -15 -8 -27 -8 -15 0 -18 3 -9 8 17 11 43 11 36 0z m116 -4
c0 -8 -5 -12 -10 -9 -6 4 -8 11 -5 16 9 14 15 11 15 -7z m169 0 c5 3 12 -2 15
-11 4 -10 4 -14 0 -10 -4 4 -13 2 -20 -4 -10 -9 -11 -16 -2 -33 11 -21 11 -21
-9 -1 -17 17 -18 21 -6 28 12 8 12 12 -4 30 -15 18 -15 19 -1 8 9 -7 21 -10
27 -7z m95 -14 c-6 -6 -10 -2 -11 12 -2 16 1 18 10 9 7 -7 8 -14 1 -21z m-354
12 c0 -5 -12 -14 -27 -21 l-28 -12 25 21 c29 22 30 23 30 12z m1075 -12 c-3
-4 8 -14 24 -21 17 -8 27 -18 24 -26 -4 -10 -9 -9 -20 7 -8 11 -19 18 -24 15
-5 -4 -9 -1 -9 5 0 7 -6 10 -12 8 -7 -3 -13 -13 -13 -23 0 -27 -22 -30 -35 -4
-11 20 -10 21 6 15 10 -4 15 -4 11 0 -4 4 -3 12 3 18 10 13 53 19 45 6z m-749
-17 c0 -10 -11 -28 -23 -40 -13 -12 -23 -27 -23 -33 0 -5 -4 -10 -10 -10 -18
0 -10 29 10 35 11 3 20 11 20 16 0 6 -5 7 -12 3 -7 -4 -8 -3 -4 5 4 6 12 9 17
6 5 -4 9 3 9 14 0 12 4 21 9 21 5 0 8 -8 7 -17z m-176 3 c0 -2 -7 -7 -16 -10
-8 -3 -12 -2 -9 4 6 10 25 14 25 6z m550 -26 c5 0 22 -11 38 -25 26 -21 34
-24 57 -15 15 6 31 8 36 4 5 -3 9 0 9 5 0 6 7 11 16 11 8 0 13 3 10 8 -8 13
62 8 75 -5 9 -9 9 -13 2 -13 -6 0 -14 6 -17 13 -2 6 -3 1 -2 -12 2 -14 9 -27
16 -29 8 -3 10 0 5 8 -5 9 -4 11 4 6 19 -12 -12 -52 -38 -49 -18 2 -20 -1 -15
-25 l6 -27 -19 23 c-12 15 -25 21 -36 16 -12 -4 -17 -1 -17 10 0 10 -5 13 -17
9 -17 -7 -17 -6 0 11 9 9 17 21 17 26 0 11 -57 -5 -76 -21 -11 -9 -14 -9 -14
1 0 10 -3 10 -15 0 -8 -7 -12 -17 -8 -24 4 -6 -1 -5 -10 3 -10 8 -17 9 -17 3
0 -6 -9 -10 -19 -9 -11 0 -17 5 -15 9 3 5 10 6 15 3 5 -4 9 -1 9 4 0 6 -3 11
-7 12 -5 0 -16 2 -25 4 -10 2 -18 -1 -18 -6 0 -6 -5 -7 -10 -4 -6 4 -8 11 -5
16 4 5 1 9 -5 9 -6 0 -8 5 -5 10 9 15 35 12 35 -4 0 -9 9 -13 25 -12 13 2 22
0 20 -4 -8 -13 23 -19 33 -7 25 32 22 36 -23 32 -26 -1 -43 0 -40 4 4 3 12 6
18 6 5 0 12 5 14 11 2 6 -9 11 -26 11 -18 0 -28 -5 -24 -10 3 -6 0 -8 -8 -6
-12 4 -60 -33 -55 -43 0 -2 -4 2 -10 9 -6 7 -15 9 -19 5 -4 -4 -6 0 -3 8 3 9
15 14 31 13 26 -2 43 20 30 40 -4 7 1 6 10 -2 12 -9 17 -10 17 -2 0 8 5 9 19
2 15 -8 21 -7 27 7 7 16 7 16 11 0 3 -10 8 -18 13 -18z m-537 -4 c3 -8 -2 -16
-13 -19 -16 -4 -17 -2 -7 14 14 23 13 23 20 5z m218 -7 c-16 -13 -21 -25 -16
-41 6 -23 6 -23 -7 -2 -14 23 -40 22 -31 -2 3 -8 -1 -14 -10 -14 -30 0 -28 20
5 39 18 11 37 24 43 29 5 5 16 9 24 9 9 0 6 -7 -8 -18z m-531 -14 c5 0 10 -4
9 -10 0 -5 -7 -9 -15 -7 -8 2 -14 -3 -14 -10 0 -8 -4 -6 -11 4 -5 9 -16 15
-23 12 -7 -3 -16 2 -20 12 -5 14 -4 15 9 4 12 -10 15 -10 15 0 0 10 3 10 15 0
13 -11 15 -10 9 6 -5 16 -4 16 5 4 6 -8 15 -15 21 -15z m365 5 c-3 -4 0 -10 7
-12 8 -3 7 -6 -3 -10 -11 -4 -15 1 -15 17 0 13 4 21 8 19 5 -3 6 -9 3 -14z
m920 -30 c-4 -12 -9 -19 -12 -17 -3 3 -2 15 2 27 4 12 9 19 12 17 3 -3 2 -15
-2 -27z m-1475 -10 c0 -5 -2 -10 -4 -10 -3 0 -8 5 -11 10 -3 6 -1 10 4 10 6 0
11 -4 11 -10z m417 -5 c0 -8 -4 -12 -9 -9 -5 3 -6 10 -3 15 9 13 12 11 12 -6z
m163 0 c0 -8 -4 -15 -10 -15 -5 0 -7 7 -4 15 4 8 8 15 10 15 2 0 4 -7 4 -15z
m364 0 c3 -8 -3 -19 -13 -25 -17 -9 -18 -7 -7 15 13 29 12 29 20 10z m616 0
c5 3 12 0 16 -7 4 -7 4 -10 -1 -6 -4 4 -13 4 -19 -2 -8 -6 -12 -2 -13 13 0 12
1 16 4 9 3 -6 9 -10 13 -7z m-1280 -10 c11 -13 10 -14 -4 -9 -9 3 -16 10 -16
15 0 13 6 11 20 -6z m328 -7 c-2 -7 5 -12 15 -12 9 1 17 -2 17 -6 0 -11 -30
-21 -41 -14 -12 7 -11 44 1 44 6 0 9 -6 8 -12z m95 -7 c20 9 20 9 5 -4 -10 -8
-16 -16 -13 -18 2 -3 -5 -10 -16 -17 -19 -12 -19 -11 -9 8 8 14 8 20 0 20 -6
0 -8 5 -4 12 6 9 9 9 12 0 3 -9 9 -9 25 -1z m164 -8 c0 -8 -4 -10 -12 -3 -7 5
-16 6 -20 2 -5 -4 -5 -2 -2 4 9 15 34 13 34 -3z m-670 -15 c-3 -8 -6 -5 -6 6
-1 11 2 17 5 13 3 -3 4 -12 1 -19z m749 -10 c-9 -12 -16 -19 -16 -15 0 11 24
47 28 42 2 -2 -3 -14 -12 -27z m630 7 c1 -10 -5 -13 -19 -11 -12 2 -20 7 -17
12 3 5 11 7 19 6 8 -2 10 1 5 10 -4 7 -3 9 1 5 5 -4 10 -14 11 -22z m495 1
c-7 -9 -7 -16 1 -24 9 -9 9 -12 -1 -12 -7 0 -9 -5 -5 -12 4 -6 3 -8 -3 -5 -8
5 -10 39 -3 57 1 3 2 9 1 13 -1 5 3 6 9 2 8 -5 8 -11 1 -19z m-697 -7 c-6 -11
-24 -2 -24 11 0 5 7 7 15 4 8 -4 12 -10 9 -15z m571 11 c-3 -5 -11 -10 -16
-10 -6 0 -7 5 -4 10 3 6 11 10 16 10 6 0 7 -4 4 -10z m422 -15 c0 -8 -5 -15
-11 -15 -6 0 -4 -5 4 -10 8 -5 10 -10 4 -10 -18 0 -24 12 -13 31 12 23 16 24
16 4z m-1787 -5 c0 -5 -2 -10 -4 -10 -3 0 -8 5 -11 10 -3 6 -1 10 4 10 6 0 11
-4 11 -10z m634 -7 c4 -10 4 -14 0 -10 -4 4 -17 -1 -28 -10 -20 -17 -20 -17
-7 0 11 14 11 17 0 18 -8 0 -5 4 6 9 11 5 21 9 21 9 1 1 5 -7 8 -16z m706 1
c0 -2 -7 -4 -15 -4 -8 0 -15 4 -15 10 0 5 7 7 15 4 8 -4 15 -8 15 -10z m-950
2 c0 -3 -4 -8 -10 -11 -5 -3 -10 -1 -10 4 0 6 5 11 10 11 6 0 10 -2 10 -4z
m999 -25 c-6 -16 -19 -31 -29 -34 -17 -4 -18 -2 -9 14 5 10 14 19 19 19 6 0
10 7 10 15 0 8 4 15 9 15 6 0 6 -11 0 -29z m467 17 c5 4 6 3 2 -2 -4 -5 -3
-17 2 -27 8 -14 6 -21 -12 -30 -21 -11 -22 -11 -9 4 9 12 10 17 2 17 -6 0 -14
-7 -18 -16 -5 -13 -7 -13 -14 -2 -14 21 -11 28 11 28 23 0 25 10 8 30 -11 12
-10 12 3 2 9 -6 20 -8 25 -4z m104 -4 c0 -8 -4 -12 -10 -9 -5 3 -10 10 -10 16
0 5 5 9 10 9 6 0 10 -7 10 -16z m-1622 -24 c14 0 15 -2 2 -10 -16 -10 -30 5
-29 30 1 11 3 10 6 -2 2 -10 12 -18 21 -18z m1309 15 c-7 -7 -18 -10 -24 -8
-21 8 -15 18 11 19 20 2 22 -1 13 -11z m-52 -15 c-1 -11 -8 -26 -15 -33 -12
-10 -12 -9 -2 4 10 14 10 20 -3 33 -15 15 -15 16 3 16 13 0 18 -6 17 -20z
m-331 -1 c3 -3 -4 -10 -14 -17 -16 -10 -20 -10 -20 2 0 8 -6 17 -12 20 -7 3
-1 4 14 3 15 -2 29 -5 32 -8z m491 1 c3 -6 -1 -7 -9 -4 -18 7 -21 14 -7 14 6
0 13 -4 16 -10z m-515 -43 c13 -5 13 -6 0 -6 -9 -1 -22 5 -29 12 -11 10 -14
10 -18 0 -3 -7 -9 -13 -15 -13 -6 0 -6 6 2 15 6 8 8 20 4 27 -4 7 4 3 17 -8
13 -12 31 -24 39 -27z m185 33 c-3 -5 -11 -10 -16 -10 -6 0 -7 5 -4 10 3 6 11
10 16 10 6 0 7 -4 4 -10z m255 -6 c0 -8 -4 -12 -10 -9 -5 3 -10 10 -10 16 0 5
5 9 10 9 6 0 10 -7 10 -16z m300 7 c0 -6 -4 -12 -8 -15 -5 -3 -9 1 -9 9 0 8 4
15 9 15 4 0 8 -4 8 -9z m-347 -27 c-7 -19 -10 -18 -16 5 -3 13 -1 18 9 14 7
-2 10 -11 7 -19z m-2260 -21 c-3 -7 -9 -13 -14 -13 -11 0 -30 36 -23 43 10 10
42 -16 37 -30z m2144 22 c0 -8 -4 -12 -9 -9 -4 3 -8 9 -8 15 0 5 4 9 8 9 5 0
9 -7 9 -15z m279 4 c2 -4 -1 -11 -7 -15 -8 -4 -9 -3 -5 4 4 7 3 12 -3 12 -5 0
-11 -4 -13 -9 -1 -5 -11 -3 -22 4 -17 13 -16 14 13 13 18 -1 34 -5 37 -9z
m-312 -7 c2 -4 0 -14 -6 -22 -8 -12 -9 -12 -5 2 3 9 1 19 -6 22 -9 3 -9 5 0 5
6 1 14 -3 17 -7z m250 -14 c9 -12 16 -19 16 -15 0 4 6 2 14 -5 8 -7 12 -17 9
-22 -3 -4 -8 -3 -12 2 -4 6 -22 18 -41 26 -25 11 -29 15 -15 16 17 0 17 2 5
10 -9 6 -10 10 -3 10 6 0 19 -10 27 -22z m-1111 -3 c-3 -9 -8 -14 -10 -11 -3
3 -2 9 2 15 9 16 15 13 8 -4z m157 11 c0 -3 -4 -8 -10 -11 -5 -3 -10 -1 -10 4
0 6 5 11 10 11 6 0 10 -2 10 -4z m597 -2 c-3 -3 -12 -4 -19 -1 -8 3 -5 6 6 6
11 1 17 -2 13 -5z m293 -3 c0 -6 -4 -13 -10 -16 -5 -3 -10 1 -10 9 0 9 5 16
10 16 6 0 10 -4 10 -9z m25 -31 c3 -5 1 -10 -4 -10 -6 0 -11 5 -11 10 0 6 2
10 4 10 3 0 8 -4 11 -10z m-608 -15 c0 -8 -4 -12 -9 -9 -5 3 -6 10 -3 15 9 13
12 11 12 -6z m583 6 c0 -6 -4 -12 -8 -15 -5 -3 -9 1 -9 9 0 8 4 15 9 15 4 0 8
-4 8 -9z m200 5 c0 -2 -7 -7 -16 -10 -8 -3 -12 -2 -9 4 6 10 25 14 25 6z m65
-23 c-9 -38 -27 -47 -42 -20 -19 34 -15 45 7 19 l19 -23 7 25 c3 14 8 26 11
26 3 0 2 -12 -2 -27z m1405 -3 c6 -11 8 -20 6 -20 -3 0 -10 9 -16 20 -6 11 -8
20 -6 20 3 0 10 -9 16 -20z m-4103 -4 c-3 -7 0 -20 6 -27 10 -11 9 -11 -5 0
-20 15 -24 41 -7 41 6 0 9 -6 6 -14z m2342 -9 c0 -9 -2 -8 -6 1 -2 6 -10 9
-15 6 -7 -4 -8 -2 -4 5 9 13 26 5 25 -12z m591 -6 c0 -13 -29 -8 -34 5 -3 7 2
10 15 7 10 -3 19 -9 19 -12z m-95 -12 c-6 -29 -15 -37 -15 -12 0 17 8 33 16
33 2 0 1 -10 -1 -21z m-115 -9 c-9 -6 -9 -9 1 -13 9 -3 10 -6 2 -6 -6 -1 -15
4 -18 9 -9 14 4 32 17 24 7 -4 6 -9 -2 -14z m-45 -13 c11 4 13 1 9 -11 -5 -13
-2 -15 12 -10 15 6 17 4 7 -6 -9 -10 -15 -10 -26 -1 -8 6 -23 8 -33 4 -17 -6
-17 -5 -5 10 9 12 10 17 2 17 -7 0 -9 5 -5 11 5 8 10 7 16 -4 5 -9 15 -14 23
-10z m289 2 c-6 -11 -24 -2 -24 11 0 5 7 7 15 4 8 -4 12 -10 9 -15z m79 -82
c-5 -22 -5 -22 11 -2 10 11 15 15 12 10 -2 -6 -1 -17 5 -25 5 -8 9 -10 10 -5
4 51 17 68 15 21 0 -19 -4 -32 -7 -30 -4 2 -12 -3 -19 -11 -7 -8 -17 -15 -23
-15 -6 0 -2 6 8 14 17 12 17 13 -9 18 -19 4 -26 2 -23 -7 3 -6 1 -18 -4 -26
-6 -10 -9 -4 -9 19 0 18 5 32 12 32 9 0 9 3 1 11 -6 6 -9 18 -6 25 9 23 32 -3
26 -29z m297 5 c0 -15 -2 -15 -10 -2 -13 20 -13 33 0 25 6 -3 10 -14 10 -23z
m151 1 c-12 -20 -14 -14 -5 12 4 9 9 14 11 11 3 -2 0 -13 -6 -23z m-3587 -7
c-10 -8 -21 -12 -24 -10 -5 6 21 24 34 24 6 0 1 -6 -10 -14z m3242 -48 c4 -7
-3 -3 -15 9 -11 12 -21 30 -21 40 0 13 4 10 14 -9 8 -16 18 -34 22 -40z m39
32 c4 -6 11 -8 16 -5 5 3 6 0 4 -7 -3 -7 -15 -20 -28 -27 -20 -13 -21 -13 -8
2 8 11 9 17 3 17 -6 0 -9 7 -6 15 6 14 -6 20 -29 16 -5 -1 -6 3 -2 9 7 11 39
-2 50 -20z m268 -2 c9 0 15 -3 12 -9 -4 -5 1 -9 10 -9 10 0 13 5 9 12 -4 7 -3
8 4 4 15 -9 3 -38 -14 -32 -8 3 -14 -1 -14 -9 0 -8 5 -15 10 -15 6 0 9 -5 8
-12 -3 -11 9 -13 43 -9 5 0 8 5 5 9 -4 7 27 8 57 3 14 -2 7 -29 -9 -35 -14 -5
-15 -4 -4 9 12 14 9 15 -21 10 -34 -6 -52 -15 -31 -15 25 0 11 -16 -15 -18
-22 -1 -24 0 -13 8 14 9 9 12 -17 9 -5 0 -11 10 -14 23 -3 14 -12 22 -22 22
-9 -1 -17 5 -17 13 0 8 5 11 10 8 6 -3 10 1 10 10 0 9 -3 14 -7 12 -5 -3 -15
2 -23 11 -13 14 -12 15 5 8 11 -5 28 -8 38 -8z m-54 -29 c-15 -9 -32 -2 -24
11 3 5 13 6 21 3 12 -4 13 -8 3 -14z m-430 -12 c0 -9 -2 -8 -6 1 -2 6 -10 9
-15 6 -7 -4 -8 -2 -4 5 9 13 26 5 25 -12z m143 6 c-6 -3 -9 -10 -5 -16 4 -7
-1 -6 -10 2 -18 14 -23 26 -8 16 5 -3 13 0 16 6 4 5 10 7 14 3 3 -4 0 -9 -7
-11z m108 -8 c-7 -9 -10 -18 -6 -22 3 -4 13 2 21 13 8 10 15 14 15 7 0 -6 -5
-15 -10 -18 -6 -4 -8 -10 -5 -15 3 -5 0 -12 -6 -16 -7 -4 -9 -3 -6 3 9 14 -22
26 -37 14 -7 -6 -16 -3 -26 7 -13 14 -12 15 3 9 11 -4 25 1 37 13 23 23 38 27
20 5z m595 -25 c-3 -5 -14 -10 -23 -9 -14 0 -13 2 3 9 27 11 27 11 20 0z
m-653 -34 c7 4 8 2 4 -5 -9 -14 -36 3 -36 23 0 6 5 3 11 -7 6 -9 15 -14 21
-11z m43 -24 c-8 -2 -15 -10 -15 -17 0 -9 -6 -12 -15 -9 -14 6 -13 8 1 19 10
7 14 17 9 24 -5 9 -1 9 14 -1 17 -10 18 -14 6 -16z m159 12 c3 -8 2 -12 -4 -9
-6 3 -10 -1 -10 -10 0 -9 4 -14 9 -11 4 3 16 0 26 -8 15 -11 16 -13 1 -13 -9
0 -16 5 -16 10 0 6 -3 7 -7 4 -3 -4 -13 -1 -21 5 -12 10 -14 9 -11 -7 3 -11 9
-20 16 -20 6 0 15 -4 20 -9 5 -5 3 -6 -4 -2 -8 4 -13 1 -13 -8 0 -8 3 -16 8
-19 4 -2 1 -2 -5 -1 -7 2 -13 -3 -13 -11 0 -19 14 -19 32 -2 7 7 21 16 31 20
15 6 16 4 7 -14 -6 -11 -15 -17 -20 -14 -4 3 -14 -1 -22 -8 -7 -8 -19 -12 -26
-9 -14 4 -15 1 -6 -23 6 -14 8 -14 24 0 16 15 18 14 24 -1 8 -21 -15 -39 -26
-21 -7 11 -12 3 -9 -15 0 -4 -6 -5 -13 -2 -9 4 -16 -2 -18 -16 -2 -11 -7 -20
-12 -20 -5 1 -12 -4 -17 -11 -4 -8 -11 -10 -15 -7 -3 4 1 14 9 22 12 12 17 13
20 3 4 -9 6 -9 6 1 1 7 -5 15 -13 18 -8 3 -12 12 -9 20 6 16 -17 16 -29 0 -3
-5 -14 -11 -24 -12 -10 -2 -25 -13 -35 -25 -12 -16 -18 -19 -24 -9 -5 8 -4 11
2 7 5 -4 16 4 22 17 14 26 71 63 71 46 0 -6 5 -8 10 -5 6 3 13 0 16 -8 3 -9
13 -13 24 -10 11 3 16 11 13 20 -5 12 -7 12 -15 1 -9 -12 -6 4 8 37 3 6 -4 11
-15 11 -10 0 -17 -6 -14 -12 2 -7 0 -15 -6 -19 -6 -3 -11 -1 -11 5 0 6 -6 8
-12 4 -7 -4 -10 -4 -6 1 4 4 3 14 -2 20 -7 9 -3 17 15 29 14 9 23 21 20 26 -4
6 -1 10 4 10 18 0 12 -27 -6 -35 -17 -6 -17 -7 0 -17 14 -7 22 -6 32 8 11 16
10 25 -7 59 -17 32 -18 37 -4 26 9 -7 17 -11 17 -7 1 3 3 11 4 16 1 6 3 12 4
15 3 11 19 4 25 -11z m286 12 c0 -2 -7 -7 -16 -10 -8 -3 -12 -2 -9 4 6 10 25
14 25 6z m-177 -67 c-8 -8 -13 -7 -18 2 -5 8 -4 10 3 5 7 -4 12 -2 12 5 0 7 3
9 7 6 4 -4 2 -12 -4 -18z m-358 -17 c-6 -7 -34 11 -29 19 3 5 11 3 19 -4 7 -6
12 -13 10 -15z m419 13 c-4 -8 -8 -15 -10 -15 -2 0 -4 7 -4 15 0 8 4 15 10 15
5 0 7 -7 4 -15z m-134 -15 c0 -5 -2 -10 -4 -10 -3 0 -8 5 -11 10 -3 6 -1 10 4
10 6 0 11 -4 11 -10z m100 1 c0 -5 -7 -12 -16 -15 -14 -5 -15 -4 -4 9 14 17
20 19 20 6z m-45 -20 c-3 -6 -11 -11 -16 -11 -5 0 -4 6 3 14 14 16 24 13 13
-3z m73 -16 c-3 -3 -9 2 -12 12 -6 14 -5 15 5 6 7 -7 10 -15 7 -18z m-67 -18
c-10 -9 -11 -8 -5 6 3 10 9 15 12 12 3 -3 0 -11 -7 -18z m-51 -17 c-13 -8 -12
-10 4 -10 11 0 17 -3 13 -6 -3 -4 -13 -4 -22 0 -18 6 -11 26 8 26 7 0 6 -4 -3
-10z m-176 -15 c-3 -8 -10 -13 -14 -12 -5 1 -15 -6 -22 -16 -13 -18 -14 -17
-14 2 0 11 4 17 8 15 4 -3 8 2 8 10 0 9 9 16 20 16 13 0 18 -5 14 -15z m28
-81 c-5 -37 -16 -38 -17 -1 0 17 9 33 20 37 1 0 -1 -16 -3 -36z m-32 -35 c0
-5 -4 -9 -10 -9 -5 0 -10 7 -10 16 0 8 5 12 10 9 6 -3 10 -10 10 -16z"/>
<path d="M5977 9554 c-4 -4 -4 -10 -1 -15 6 -10 34 0 34 12 0 10 -24 12 -33 3z"/>
<path d="M6020 9548 c0 -9 6 -19 13 -22 6 -3 2 -3 -10 0 -19 4 -23 1 -23 -17
0 -18 3 -19 15 -9 8 6 18 9 23 7 4 -3 13 -3 19 1 6 4 1 16 -13 32 -19 19 -24
21 -24 8z"/>
<path d="M5960 9520 c0 -5 5 -10 11 -10 5 0 7 -6 3 -12 -5 -10 -4 -10 6 -1 7
6 9 16 6 22 -9 14 -26 14 -26 1z"/>
<path d="M5355 9750 c-11 -17 4 -46 25 -47 23 -2 35 13 19 23 -8 4 -9 3 -5 -4
8 -14 -3 -15 -23 -3 -8 5 -11 16 -8 25 7 18 2 22 -8 6z"/>
<path d="M5273 9739 c1 -6 -4 -14 -12 -17 -8 -3 -11 0 -7 7 10 15 -7 14 -23
-1 -11 -10 -13 -10 -7 0 4 6 3 12 -2 12 -5 0 -12 -11 -14 -24 -4 -20 0 -25 24
-30 41 -8 43 -8 43 14 0 10 4 22 8 26 10 11 9 24 -3 24 -5 0 -9 -5 -7 -11z"/>
<path d="M5051 9702 c7 -10 22 -17 38 -16 14 1 33 -4 41 -10 13 -10 13 -9 1 7
-13 16 -13 20 0 27 10 7 4 9 -18 7 -17 -1 -29 -6 -26 -12 3 -5 0 -4 -8 3 -21
20 -41 16 -28 -6z"/>
<path d="M4896 9691 c-4 -5 -2 -12 3 -15 5 -4 12 -2 15 3 4 5 2 12 -3 15 -5 4
-12 2 -15 -3z"/>
<path d="M5591 9681 c13 -11 26 -18 28 -15 7 7 -21 34 -36 34 -10 0 -8 -6 8
-19z"/>
<path d="M6103 9685 c0 -6 8 -12 18 -12 11 -1 16 3 13 11 -6 16 -31 17 -31 1z"/>
<path d="M5715 9670 c-3 -6 1 -7 9 -4 18 7 21 14 7 14 -6 0 -13 -4 -16 -10z"/>
<path d="M5915 9670 c-3 -6 1 -7 9 -4 18 7 21 14 7 14 -6 0 -13 -4 -16 -10z"/>
<path d="M5955 9670 c-3 -5 -1 -10 4 -10 6 0 11 5 11 10 0 6 -2 10 -4 10 -3 0
-8 -4 -11 -10z"/>
<path d="M6235 9670 c-3 -5 -2 -10 4 -10 5 0 13 5 16 10 3 6 2 10 -4 10 -5 0
-13 -4 -16 -10z"/>
<path d="M5670 9651 c0 -5 7 -11 14 -14 10 -4 13 -1 9 9 -6 15 -23 19 -23 5z"/>
<path d="M5635 9623 c1 -19 7 -27 23 -28 11 -1 24 5 26 12 3 8 2 12 -3 8 -13
-7 -42 5 -36 15 3 5 1 11 -3 14 -5 3 -8 -7 -7 -21z"/>
<path d="M5725 9640 c3 -5 8 -10 11 -10 2 0 4 5 4 10 0 6 -5 10 -11 10 -5 0
-7 -4 -4 -10z"/>
<path d="M4845 9630 c4 -6 11 -8 16 -5 14 9 11 15 -7 15 -8 0 -12 -5 -9 -10z"/>
<path d="M4891 9624 c0 -11 3 -14 6 -6 3 7 2 16 -1 19 -3 4 -6 -2 -5 -13z"/>
<path d="M6525 9631 c3 -6 -2 -14 -12 -19 -14 -9 -13 -10 8 -9 19 2 25 6 21
20 -2 9 -9 17 -14 17 -5 0 -7 -4 -3 -9z"/>
<path d="M9508 9633 c7 -3 16 -2 19 1 4 3 -2 6 -13 5 -11 0 -14 -3 -6 -6z"/>
<path d="M6091 9613 c-16 -17 -11 -25 8 -14 7 5 12 13 10 19 -2 6 -10 4 -18
-5z"/>
<path d="M6440 9609 c0 -5 5 -7 10 -4 6 3 10 8 10 11 0 2 -4 4 -10 4 -5 0 -10
-5 -10 -11z"/>
<path d="M6479 9599 c0 -2 -2 -12 -4 -21 -2 -10 1 -18 6 -18 5 0 9 5 9 11 0 8
5 7 15 -1 13 -11 18 -11 28 0 9 10 9 11 -3 8 -8 -3 -23 1 -32 10 -10 8 -18 13
-19 11z"/>
<path d="M6440 9570 c0 -5 5 -10 10 -10 6 0 10 5 10 10 0 6 -4 10 -10 10 -5 0
-10 -4 -10 -10z"/>
<path d="M6546 9564 c-3 -8 -2 -12 3 -9 5 3 12 1 16 -5 3 -5 10 -10 16 -10 5
0 4 9 -3 20 -15 24 -24 25 -32 4z"/>
<path d="M6970 9571 c0 -7 -5 -9 -12 -5 -7 4 -10 4 -6 0 3 -4 10 -8 15 -8 4
-1 14 -8 21 -17 11 -13 11 -12 1 9 -15 32 -19 36 -19 21z"/>
<path d="M5084 9559 c-3 -6 -2 -15 4 -21 6 -6 11 -2 15 11 5 22 -7 29 -19 10z"/>
<path d="M6819 9553 c-13 -16 -12 -17 4 -4 9 7 17 15 17 17 0 8 -8 3 -21 -13z"/>
<path d="M8283 9555 c0 -8 4 -12 9 -9 5 3 6 10 3 15 -9 13 -12 11 -12 -6z"/>
<path d="M6210 9550 c0 -5 5 -10 11 -10 5 0 7 5 4 10 -3 6 -8 10 -11 10 -2 0
-4 -4 -4 -10z"/>
<path d="M6913 9535 c0 -7 6 -11 14 -8 7 3 13 6 13 8 0 2 -6 5 -13 8 -8 3 -14
-1 -14 -8z"/>
<path d="M8305 9540 c-3 -5 -1 -10 4 -10 6 0 11 5 11 10 0 6 -2 10 -4 10 -3 0
-8 -4 -11 -10z"/>
<path d="M6415 9530 c-4 -6 -1 -9 7 -8 7 2 12 -5 12 -15 -1 -10 3 -16 10 -14
6 2 16 -3 22 -11 10 -13 11 -12 10 9 -1 13 -7 23 -14 22 -6 -2 -9 4 -6 12 7
17 -31 22 -41 5z"/>
<path d="M6486 9525 c4 -8 8 -15 10 -15 2 0 4 7 4 15 0 8 -4 15 -10 15 -5 0
-7 -7 -4 -15z"/>
<path d="M6635 9530 c-3 -5 -1 -10 4 -10 6 0 11 5 11 10 0 6 -2 10 -4 10 -3 0
-8 -4 -11 -10z"/>
<path d="M7000 9515 c-13 -16 -35 -21 -26 -6 3 5 -5 8 -19 7 -21 -1 -23 -3
-10 -12 8 -6 13 -13 10 -15 -2 -3 5 -5 15 -5 11 0 20 4 20 9 0 4 5 5 10 2 6
-4 7 -11 4 -17 -4 -7 -2 -8 5 -4 6 4 9 11 6 16 -3 4 1 10 7 13 10 3 10 8 2 16
-8 9 -14 8 -24 -4z"/>
<path d="M7389 9521 c9 -6 11 -18 7 -36 -6 -23 -4 -26 12 -21 12 4 25 -1 37
-14 21 -24 37 -26 29 -5 -4 8 -11 12 -17 8 -6 -3 -7 -1 -3 5 4 7 3 19 -2 28
-6 11 -11 13 -16 5 -4 -6 -12 -11 -18 -11 -6 0 -8 3 -5 6 9 9 -11 44 -26 44
-8 0 -8 -3 2 -9z"/>
<path d="M6555 9510 c3 -5 8 -10 11 -10 2 0 4 5 4 10 0 6 -5 10 -11 10 -5 0
-7 -4 -4 -10z"/>
<path d="M7499 9513 c-1 -5 -2 -15 -3 -23 0 -8 -7 -14 -14 -12 -10 2 -10 -2
-2 -18 6 -11 18 -20 28 -21 10 0 12 -3 5 -6 -22 -8 -14 -21 10 -19 31 4 44 12
57 36 10 18 9 19 -15 8 -19 -8 -22 -14 -13 -20 11 -6 11 -8 0 -8 -7 0 -15 7
-19 16 -3 10 -13 14 -25 11 -14 -4 -17 -2 -9 7 6 6 9 22 8 34 -1 22 -6 29 -8
15z"/>
<path d="M6537 9493 c-7 -7 3 -33 13 -33 14 0 19 28 5 33 -7 3 -15 3 -18 0z"/>
<path d="M7536 9484 c-8 -20 0 -32 14 -18 5 5 5 15 1 22 -6 11 -10 10 -15 -4z"/>
<path d="M7636 9445 c-3 -8 -1 -15 3 -15 5 0 11 7 15 15 3 8 1 15 -3 15 -5 0
-11 -7 -15 -15z"/>
<path d="M4679 9433 c-13 -16 -12 -17 4 -4 16 13 21 21 13 21 -2 0 -10 -8 -17
-17z"/>
<path d="M7955 9440 c-3 -5 -3 -15 1 -22 4 -6 3 -8 -3 -5 -6 4 -13 1 -16 -7
-4 -10 0 -12 14 -9 14 4 18 11 13 25 -4 15 -3 18 6 13 9 -5 11 -4 6 3 -9 15
-13 15 -21 2z"/>
<path d="M7917 9433 c-4 -3 -7 -13 -7 -20 0 -12 3 -12 15 1 8 8 15 17 15 20 0
8 -15 7 -23 -1z"/>
<path d="M8396 9412 c-3 -5 1 -9 9 -9 8 0 12 4 9 9 -3 4 -7 8 -9 8 -2 0 -6 -4
-9 -8z"/>
<path d="M6250 9395 c7 -8 17 -15 22 -15 5 0 3 7 -6 15 -8 8 -18 15 -22 15 -3
0 -1 -7 6 -15z"/>
<path d="M8590 9395 c7 -8 17 -15 22 -15 5 0 3 7 -6 15 -8 8 -18 15 -22 15 -3
0 -1 -7 6 -15z"/>
<path d="M8754 9388 l-19 -23 23 19 c21 18 27 26 19 26 -2 0 -12 -10 -23 -22z"/>
<path d="M7364 9388 c-4 -5 0 -14 7 -19 20 -13 29 -11 29 5 0 18 -27 29 -36
14z"/>
<path d="M7870 9390 c-10 -6 -11 -10 -3 -10 7 0 10 -7 6 -17 -6 -17 -5 -17 13
-1 21 21 8 43 -16 28z"/>
<path d="M8635 9390 c-3 -6 1 -7 9 -4 18 7 21 14 7 14 -6 0 -13 -4 -16 -10z"/>
<path d="M8715 9390 c-3 -6 1 -7 9 -4 18 7 21 14 7 14 -6 0 -13 -4 -16 -10z"/>
<path d="M8996 9388 c7 -11 32 -10 39 2 3 6 -4 9 -19 8 -13 -1 -22 -6 -20 -10z"/>
<path d="M7965 9380 c11 -5 14 -9 8 -9 -8 -1 -13 -16 -13 -38 0 -60 -13 -69
-38 -25 -12 22 -19 42 -15 46 3 3 1 6 -5 6 -6 0 -14 -5 -17 -10 -4 -6 -10 -8
-15 -5 -4 3 -13 -2 -21 -11 -10 -13 -7 -20 22 -46 19 -17 33 -33 31 -36 -2 -2
0 -7 4 -10 4 -4 5 -2 2 3 -3 6 0 15 7 22 10 10 15 9 20 -5 6 -16 7 -16 19 -1
10 14 15 15 29 4 10 -7 15 -19 11 -29 -7 -18 -24 -22 -24 -6 0 6 5 10 11 10 5
0 7 5 4 10 -9 15 -25 2 -25 -20 0 -22 22 -39 28 -22 2 6 11 8 20 5 15 -4 15
-3 2 6 -13 9 -13 11 3 11 10 0 22 12 27 26 14 35 13 38 -6 20 -8 -9 -12 -21
-8 -28 4 -7 -2 -5 -14 5 -20 18 -20 47 0 47 5 0 0 14 -12 30 -16 22 -19 34
-11 43 7 10 3 13 -17 14 -24 1 -24 1 -7 -7z m28 -81 c-4 -16 -8 -17 -14 -7
-13 19 -11 28 5 28 9 0 12 -7 9 -21z"/>
<path d="M8405 9379 c-4 -6 -4 -13 -1 -16 3 -4 6 -1 6 6 0 7 5 9 12 5 7 -4 8
-3 4 4 -9 15 -13 15 -21 1z"/>
<path d="M8855 9378 c8 -21 14 -22 35 -7 13 9 13 10 -1 6 -9 -3 -22 0 -28 6
-9 9 -11 8 -6 -5z"/>
<path d="M7826 9372 c-4 -7 -4 -16 -1 -22 3 -5 3 -10 -2 -11 -9 -1 -32 -5 -52
-10 -7 -2 -16 2 -19 10 -2 8 0 11 6 7 6 -3 13 -2 17 4 3 6 -3 10 -16 10 -17 0
-20 -4 -16 -20 3 -13 -2 -28 -16 -40 -22 -21 -47 -26 -47 -10 0 6 -4 10 -10
10 -16 0 -12 -30 5 -36 8 -4 22 -1 29 5 11 10 16 8 24 -5 6 -10 25 -19 47 -21
24 -2 34 0 30 7 -3 6 -11 8 -16 5 -5 -4 -9 -2 -9 3 0 6 7 13 16 16 13 5 14 9
4 21 -8 10 -9 15 -2 15 6 0 16 -10 23 -21 7 -13 7 -19 1 -15 -6 3 -13 2 -17
-4 -3 -5 1 -10 9 -10 10 0 13 -6 9 -16 -4 -12 -2 -15 8 -12 8 3 13 15 12 27
-2 16 1 20 10 14 6 -4 4 5 -6 21 -17 25 -17 29 -3 45 17 19 22 36 7 27 -5 -4
-11 -1 -13 6 -3 9 -6 9 -12 0z m-55 -75 c-6 -8 -7 -18 -3 -22 4 -5 1 -5 -6 -1
-10 6 -10 11 -1 22 6 8 14 14 16 14 3 0 0 -6 -6 -13z"/>
<path d="M7913 9360 c2 -13 9 -26 15 -28 6 -2 9 -9 6 -17 -3 -7 -1 -16 5 -20
20 -12 12 51 -9 70 -20 18 -20 18 -17 -5z"/>
<path d="M8240 9376 c0 -2 7 -6 15 -10 8 -3 15 -1 15 4 0 6 -7 10 -15 10 -8 0
-15 -2 -15 -4z"/>
<path d="M8535 9370 c-16 -7 -17 -9 -3 -9 9 -1 20 4 23 9 7 11 7 11 -20 0z"/>
<path d="M8332 9357 c7 -8 19 -14 26 -14 11 0 10 4 -4 14 -10 7 -22 13 -26 13
-5 0 -3 -6 4 -13z"/>
<path d="M7660 9356 c0 -2 7 -7 16 -10 8 -3 12 -2 9 4 -6 10 -25 14 -25 6z"/>
<path d="M8241 9349 c-1 -9 5 -22 12 -28 14 -11 27 -5 27 13 0 6 -5 4 -10 -4
-7 -12 -11 -10 -19 10 -6 15 -10 19 -10 9z"/>
<path d="M8428 9353 c7 -3 16 -2 19 1 4 3 -2 6 -13 5 -11 0 -14 -3 -6 -6z"/>
<path d="M8062 9314 c-1 -20 -4 -45 -8 -56 -5 -17 -3 -18 15 -9 12 7 21 16 21
21 0 5 7 7 15 4 10 -4 15 0 15 15 0 12 -5 21 -11 21 -6 0 -8 -7 -5 -17 4 -10
4 -14 0 -10 -4 4 -14 2 -21 -5 -12 -10 -14 -5 -8 30 3 23 2 42 -3 42 -5 0 -9
-16 -10 -36z"/>
<path d="M8099 9333 c-13 -16 -12 -17 4 -4 12 9 17 10 17 2 0 -7 5 -9 11 -5 8
5 10 -1 6 -18 -5 -17 -2 -28 6 -31 22 -8 14 44 -9 60 -19 12 -23 11 -35 -4z"/>
<path d="M8581 9334 c0 -11 3 -14 6 -6 3 7 2 16 -1 19 -3 4 -6 -2 -5 -13z"/>
<path d="M8034 9333 c15 -4 16 -7 5 -15 -11 -7 -11 -9 -1 -6 20 5 16 23 -5 25
-15 2 -15 1 1 -4z"/>
<path d="M8204 9318 c-4 -7 -14 -23 -22 -35 -13 -21 -12 -22 12 -19 14 1 28 5
32 8 10 11 54 -17 54 -34 0 -11 -5 -15 -14 -12 -18 7 -31 -15 -17 -29 19 -19
50 -18 60 2 6 10 8 21 5 24 -3 3 -1 14 4 24 11 19 -8 59 -21 46 -4 -3 -3 -11
3 -17 5 -7 5 -17 -1 -26 -8 -12 -9 -11 -7 5 2 15 -3 20 -19 20 -31 1 -42 15
-12 16 22 0 22 1 4 8 -14 6 -24 2 -37 -13 -17 -21 -17 -21 -14 12 4 35 1 39
-10 20z m86 -124 c0 -2 -9 0 -20 6 -11 6 -20 13 -20 16 0 2 9 0 20 -6 11 -6
20 -13 20 -16z"/>
<path d="M8316 9315 c4 -8 10 -15 15 -15 5 0 9 -7 9 -15 0 -8 6 -12 15 -9 11
5 8 11 -12 30 -30 28 -34 29 -27 9z"/>
<path d="M7595 9278 c0 -24 5 -38 13 -38 15 0 15 6 1 32 -9 17 -8 19 9 14 17
-6 19 -3 15 13 -3 11 -12 19 -21 18 -13 -1 -17 -11 -17 -39z"/>
<path d="M8435 9310 c4 -6 11 -8 16 -5 14 9 11 15 -7 15 -8 0 -12 -5 -9 -10z"/>
<path d="M8765 9306 c-22 -23 -26 -36 -11 -30 8 3 17 13 20 21 8 20 4 24 -9 9z"/>
<path d="M8137 9259 c7 -7 15 -10 18 -7 3 3 -2 9 -12 12 -14 6 -15 5 -6 -5z"/>
<path d="M7920 9246 c0 -9 5 -16 10 -16 6 0 10 4 10 9 0 6 -4 13 -10 16 -5 3
-10 -1 -10 -9z"/>
<path d="M8189 9258 c0 -2 -3 -17 -5 -34 -4 -28 -1 -33 26 -42 16 -6 30 -16
30 -22 0 -6 -4 -9 -8 -6 -4 2 -8 -4 -8 -15 0 -10 6 -19 12 -19 7 0 11 12 10
28 -3 43 -17 82 -27 76 -5 -3 -9 2 -9 10 0 12 -18 33 -21 24z"/>
<path d="M8627 9249 c-10 -6 -29 -8 -43 -5 -24 6 -30 0 -16 -19 10 -14 68 -12
83 3 7 6 9 12 4 12 -6 0 -3 5 5 10 13 9 13 10 0 10 -8 -1 -23 -5 -33 -11z"/>
<path d="M7890 9193 c0 -12 7 -23 15 -27 13 -5 14 -2 4 17 -17 32 -19 33 -19
10z"/>
<path d="M7853 8993 c-18 -7 -16 -23 2 -23 8 0 15 7 15 15 0 8 -1 15 -2 14 -2
0 -9 -3 -15 -6z"/>
<path d="M8063 8073 c-18 -3 -33 -8 -33 -14 0 -5 -4 -9 -10 -9 -11 0 -30 -15
-103 -82 -29 -26 -55 -48 -58 -48 -4 0 -40 -32 -80 -71 -41 -39 -92 -86 -114
-104 -145 -121 -215 -204 -215 -253 0 -25 137 -172 549 -586 578 -582 941
-935 990 -964 l46 -27 1220 0 1220 0 55 27 c82 41 99 74 105 201 7 160 8 549
0 581 -13 59 -39 91 -100 121 -39 19 -69 20 -1077 23 l-1037 3 -43 24 c-71 40
-152 115 -373 346 -177 184 -664 674 -738 742 -81 73 -136 98 -204 90z"/>
</g>
</svg>
